<?xml version="1.0" encoding="UTF-8"?>
<svg id="Camada_2" data-name="Camada 2" xmlns="http://www.w3.org/2000/svg" viewBox="0 0 798.44 798.44">
  <defs>
    <style>
      .cls-1 {
        fill: #2a7ae4;
      }
    </style>
  </defs>
  <g id="Camada_1-2" data-name="Camada 1">
    <g id="_2069a460dcf28295e231f3111e03585e" data-name="2069a460dcf28295e231f3111e03585e">
      <path class="cls-1" d="m354.83,339.83l29.98,93.89h-97.85l29.41-93.89c6.79-22.62,12.44-49.21,18.1-71.27h1.13c5.66,22.06,11.88,48.08,19.23,71.27Zm443.6-206.76v532.29c0,73.19-59.88,133.07-133.07,133.07H133.07c-73.19,0-133.07-59.88-133.07-133.07V133.07C0,59.88,59.88,0,133.07,0h532.29c73.19,0,133.07,59.88,133.07,133.07Zm-292.58,461.28l-123.87-381.21h-88.8l-122.17,381.21h71.83l32.81-108.03h121.04l34.5,108.03h74.66Zm117.62-275.45h-70.14v275.45h70.14v-275.45Zm3.96-76.92c-.57-21.49-15.27-37.89-39.03-37.89s-39.03,16.4-39.03,37.89,15.27,37.33,38.46,37.33c24.32,0,39.59-16.4,39.59-37.33Z"/>
    </g>
  </g>
</svg>