<?xml version="1.0" encoding="UTF-8"?>
<svg id="Camada_2" data-name="Camada 2" xmlns="http://www.w3.org/2000/svg" viewBox="0 0 42 42">
  <defs>
    <style>
      .cls-1 {
        fill: #2a7ae4;
        fill-rule: evenodd;
      }
    </style>
  </defs>
  <g id="Camada_1-2" data-name="Camada 1">
    <g id="Page-1">
      <g id="Dribbble-Light-Preview">
        <g id="icons">
          <path id="javascript-_155_" data-name="javascript-[#155]" class="cls-1" d="m32.19,38.71c-3.66,0-6.03-1.75-7.19-4.03h0l3.21-1.86c.85,1.38,1.94,2.4,3.89,2.4,1.63,0,2.68-.82,2.68-1.95,0-1.7-2.26-2.36-3.86-3.04-2.85-1.21-4.74-2.73-4.74-5.95,0-2.96,2.26-5.21,5.78-5.21,2.51,0,4.31.87,5.61,3.16l-3.07,1.97c-.68-1.21-1.41-1.69-2.54-1.69s-1.89.73-1.89,1.69c0,1.18.73,1.66,2.43,2.4,3.55,1.52,6.23,2.72,6.23,6.63,0,3.55-2.79,5.5-6.54,5.5h0Zm-9.09-5.95c0,4.09-2.52,6.25-6.01,6.25-3.16,0-5.05-1.21-5.98-3.31h-.05l3.21-2.24c.62,1.1,1.18,1.88,2.53,1.88s2.11-.66,2.11-2.63v-13.8h4.2v13.86ZM0,42h42V0H0v42Z"/>
        </g>
      </g>
    </g>
  </g>
</svg>