<?xml version="1.0" encoding="UTF-8"?>
<svg id="Camada_2" data-name="Camada 2" xmlns="http://www.w3.org/2000/svg" viewBox="0 0 798.44 769.19">
  <defs>
    <style>
      .cls-1 {
        fill: #2a7ae4;
      }
    </style>
  </defs>
  <g id="Camada_1-2" data-name="Camada 1">
    <g id="_5151e0c8492e5103c096af88a51ef0ed" data-name="5151e0c8492e5103c096af88a51ef0ed">
      <path class="cls-1" d="m779.16,554.33s-99.3,267.79-441.18,205.45c-5.38-1-10.54-2.87-15.76-4.45-1.22-.36-2.46-.75-3.68-1.1-5.13-1.6-10.21-3.23-15.26-5-.58-.2-1.13-.39-1.72-.6-4.6-1.62-9.17-3.33-13.69-5.07-1.18-.46-2.36-.91-3.54-1.39-4.87-1.92-9.71-3.93-14.5-6.03-.88-.39-1.73-.78-2.63-1.18-4.19-1.86-8.33-3.8-12.44-5.76-1.07-.54-2.14-1.04-3.21-1.55-.58-.29-1.21-.58-1.81-.88-2.65-1.32-5.24-2.7-7.85-4.07-2.01-1.04-4.06-2.05-6.06-3.12-3.7-2.01-7.34-4.06-10.97-6.15-1.35-.77-2.7-1.51-4.04-2.28-4.92-2.9-9.8-5.91-14.6-8.95-1.36-.87-2.7-1.79-4.04-2.69-3.13-2.03-6.26-4.05-9.33-6.17-.33-.22-.64-.45-.95-.68-1.19-.81-2.32-1.63-3.5-2.49-3.24-2.25-6.44-4.55-9.61-6.89-1.53-1.16-3.06-2.32-4.58-3.48-2.87-2.19-5.73-4.43-8.56-6.69-1.41-1.13-2.84-2.25-4.25-3.39-3.46-2.85-6.9-5.75-10.27-8.67-.64-.56-1.31-1.1-1.96-1.69-.07-.03-.11-.08-.18-.14-3.83-3.35-7.58-6.79-11.31-10.3-1.12-1.03-2.24-2.12-3.37-3.2-2.78-2.67-5.54-5.36-8.25-8.09-1.13-1.1-2.24-2.22-3.31-3.34-3.5-3.6-6.96-7.2-10.34-10.89-.12-.17-.25-.27-.4-.43-.06-.06-.14-.15-.2-.22-3.46-3.81-6.85-7.7-10.17-11.6-.93-1.1-1.86-2.22-2.78-3.33-2.47-2.98-4.91-5.96-7.3-8.97-.99-1.25-1.99-2.52-2.97-3.78-2.68-3.46-5.33-6.95-7.9-10.5-.48-.66-.99-1.31-1.46-1.96-.1-.11-.18-.23-.25-.34-2.97-4.11-5.85-8.3-8.67-12.5-.88-1.29-1.7-2.61-2.55-3.94-2.04-3.1-4.04-6.21-5.98-9.36-1.01-1.61-1.97-3.23-2.95-4.85-1.76-2.94-3.48-5.87-5.15-8.84-.95-1.68-1.9-3.31-2.82-5.04-.51-.91-1.07-1.85-1.57-2.8-.88-1.59-1.67-3.24-2.53-4.86-1.32-2.54-2.67-5.09-3.95-7.68-54-107.96-62.81-240.15,7.89-341.75l55.18-69.98c-62.25,120.32-34.28,266.84,43.61,373.06,2.81,3.87,5.69,7.68,8.63,11.49.91,1.15,1.82,2.31,2.74,3.41,2.45,3.12,4.95,6.2,7.48,9.25.91,1.07,1.8,2.12,2.73,3.23,3.38,3.99,6.84,7.95,10.38,11.82.17.19.33.36.49.54,3.35,3.66,6.77,7.27,10.25,10.83,1.08,1.09,2.18,2.17,3.28,3.26,2.73,2.79,5.52,5.49,8.35,8.18,1.07,1.07,2.15,2.09,3.26,3.15,3.83,3.56,7.69,7.1,11.62,10.56.41.36.83.69,1.21,1.02,3.64,3.16,7.32,6.25,11.05,9.31,1.3,1.06,2.62,2.12,3.95,3.17,2.93,2.36,5.89,4.65,8.88,6.93,1.42,1.09,2.88,2.2,4.36,3.29,3.24,2.4,6.52,4.77,9.82,7.11,1.12.76,2.22,1.59,3.35,2.35,3.42,2.37,6.9,4.67,10.4,6.91,1.31.87,2.61,1.78,3.94,2.63,4.82,3.05,9.7,6.05,14.62,8.95,1.27.73,2.53,1.41,3.78,2.11,3.72,2.15,7.44,4.27,11.23,6.3,2.05,1.14,4.17,2.18,6.24,3.28,3.11,1.6,6.21,3.22,9.36,4.76,1.19.58,2.35,1.13,3.51,1.68,4.01,1.93,8.03,3.79,12.1,5.63.96.42,1.9.85,2.87,1.27,4.74,2.07,9.52,4.06,14.35,5.96,1.24.49,2.48.97,3.73,1.46,4.39,1.7,8.82,3.35,13.29,4.93.7.25,1.39.5,2.07.75,4.99,1.72,10.01,3.35,15.07,4.9,1.29.4,2.59.79,3.91,1.18,5.18,1.53,10.34,3.19,15.65,4.39,140.27,31.92,288.31,3.25,371.71-105.41Zm-494.88-171.68c7.67,10.97,16.15,24.04,26.32,32.86,3.68,4.06,7.54,8.02,11.47,11.91.99,1.01,2.01,1.99,3.03,2.98,3.81,3.7,7.71,7.35,11.71,10.89.17.12.32.29.48.41.05.05.08.06.12.12,4.45,3.89,9.03,7.64,13.68,11.32,1.03.79,2.06,1.62,3.11,2.43,4.67,3.58,9.44,7.1,14.32,10.45.15.1.27.21.42.31,2.15,1.49,4.35,2.88,6.52,4.31,1.05.68,2.05,1.4,3.1,2.04,3.5,2.24,7.03,4.42,10.62,6.51.51.31,1,.57,1.5.86,3.09,1.78,6.24,3.54,9.38,5.24,1.09.61,2.21,1.16,3.33,1.74,2.17,1.13,4.35,2.29,6.56,3.39.33.16.68.31,1,.45,4.5,2.22,9.04,4.36,13.69,6.37.99.44,2.01.83,3.02,1.25,3.71,1.57,7.45,3.11,11.22,4.55,1.6.6,3.22,1.18,4.8,1.76,3.42,1.27,6.85,2.43,10.3,3.59,1.57.5,3.1,1.01,4.67,1.49,4.91,1.52,9.77,3.46,14.9,4.3,263.96,43.74,324.9-159.5,324.9-159.5-54.94,79.11-161.32,116.86-274.84,87.4-5.04-1.33-10-2.78-14.94-4.33-1.52-.46-3-.95-4.5-1.45-3.51-1.14-7-2.35-10.46-3.61-1.58-.58-3.16-1.16-4.72-1.75-3.79-1.46-7.54-2.96-11.25-4.53-1.02-.44-2.04-.83-3.03-1.29-4.66-2.03-9.25-4.16-13.77-6.4-2.33-1.14-4.61-2.34-6.91-3.52-1.33-.68-2.66-1.37-3.98-2.05-2.94-1.6-5.86-3.25-8.74-4.93-.68-.39-1.4-.77-2.09-1.18-3.57-2.09-7.09-4.25-10.58-6.46-1.07-.68-2.11-1.43-3.18-2.13-2.31-1.49-4.6-3-6.86-4.53-4.86-3.35-9.59-6.87-14.26-10.43-1.08-.85-2.15-1.68-3.22-2.52-49.68-39.24-89.06-92.85-107.8-153.64-19.62-63.05-15.39-133.82,18.62-191.26l-41.77,58.97c-51.12,73.57-48.34,172.05-8.47,249.86,6.7,13.05,14.21,25.7,22.62,37.75Zm278.22-91.02c2.18.81,4.35,1.53,6.55,2.28.96.3,1.92.63,2.89.91,3.11.98,6.19,2.11,9.4,2.72,145.76,28.16,185.28-74.8,195.81-89.95-34.63,49.86-92.82,61.83-164.24,44.5-5.63-1.38-11.83-3.41-17.28-5.34-6.97-2.49-13.83-5.32-20.51-8.52-12.69-6.09-24.76-13.48-35.98-21.95-63.89-48.48-103.58-140.97-61.89-216.29l-22.56,31.1c-30.14,44.35-33.09,99.43-12.19,148.42,22.05,51.99,67.24,92.78,119.99,112.12Z"/>
    </g>
  </g>
</svg>