<?xml version="1.0" encoding="UTF-8"?>
<svg id="Camada_2" data-name="Camada 2" xmlns="http://www.w3.org/2000/svg" viewBox="0 0 798.44 798.44">
  <defs>
    <style>
      .cls-1 {
        fill: #2a7ae4;
      }
    </style>
  </defs>
  <g id="Camada_1-2" data-name="Camada 1">
    <g id="_2069a460dcf28295e231f3111e037552" data-name="2069a460dcf28295e231f3111e037552">
      <path class="cls-1" d="m665.36,0H133.07C59.88,0,0,59.88,0,133.07v532.29c0,73.19,59.88,133.07,133.07,133.07h532.29c73.19,0,133.07-59.88,133.07-133.07V133.07c0-73.19-59.88-133.07-133.07-133.07Zm-282.82,406.29c-27.71,27.71-71.27,40.73-120.47,40.73-13.01,0-24.89-.57-33.94-2.27v143.66h-69V212.29c24.89-4.52,59.39-7.92,106.33-7.92,50.91,0,88.24,10.75,112.56,31.11,22.63,18.67,37.33,48.64,37.33,84.28,0,36.2-11.31,66.17-32.81,86.54Zm144.77,187.78c-33.37,0-63.35-7.92-83.71-19.23l13.57-50.34c15.84,9.62,45.82,19.8,70.7,19.8,30.54,0,44.12-12.44,44.12-30.55s-11.31-28.28-45.25-40.16c-53.74-18.67-76.35-48.08-75.79-80.32,0-48.64,40.16-86.54,104.07-86.54,30.55,0,57.13,7.92,72.96,16.4l-13.57,49.21c-11.88-6.78-33.94-15.84-58.26-15.84s-38.46,11.88-38.46,28.84,13.01,26.02,48.08,38.47c49.77,18.1,72.96,43.55,73.53,84.28,0,49.77-39.02,85.97-111.99,85.97Zm-181.53-271.49c0,44.68-31.68,70.14-83.71,70.14-14.14,0-25.45-.57-33.94-2.83v-128.96c7.36-1.7,20.93-3.39,40.16-3.39,48.08,0,77.48,22.62,77.48,65.04Z"/>
    </g>
  </g>
</svg>