<?xml version="1.0" encoding="UTF-8"?>
<svg id="Camada_2" data-name="Camada 2" xmlns="http://www.w3.org/2000/svg" viewBox="0 0 65.78 58.9">
  <defs>
    <style>
      .cls-1 {
        fill: #2a7ae4;
      }
    </style>
  </defs>
  <g id="Camada_1-2" data-name="Camada 1">
    <path class="cls-1" d="m32.9,23.65c3.16,0,5.72,2.56,5.72,5.72,0,3.16-2.56,5.72-5.72,5.72-3.14,0-5.69-2.53-5.72-5.66-.02-3.18,2.55-5.77,5.72-5.79h0m-14.17,30.27c1.93,1.16,6.12-.61,11.02-5.2-1.64-1.86-3.18-3.8-4.62-5.82-2.47-.28-4.92-.69-7.35-1.22-1.56,6.55-.98,11.05.95,12.24m2.17-17.57l-.89-1.56c-.35.86-.64,1.74-.89,2.63.83.18,1.74.34,2.69.49l-.92-1.56m20.02-2.33l2.48-4.59-2.48-4.59c-.92-1.62-1.9-3.06-2.79-4.5-1.65-.09-3.4-.09-5.23-.09h-5.23c-.89,1.44-1.87,2.88-2.79,4.5l-2.48,4.68,2.48,4.59c.92,1.62,1.9,3.06,2.79,4.5h10.47c.89-1.44,1.87-2.88,2.79-4.5m-8.02-20.57c-.58.67-1.19,1.38-1.81,2.2h3.61c-.61-.83-1.22-1.53-1.81-2.2m0,31.96c.58-.67,1.19-1.38,1.81-2.2h-3.61c.61.83,1.22,1.53,1.81,2.2M47.05,4.95c-1.9-1.16-6.12.61-10.99,5.2,1.64,1.86,3.18,3.8,4.62,5.82,2.47.24,4.92.6,7.35,1.1,1.56-6.55.98-11.05-.98-12.24m-2.14,17.57l.89,1.56c.35-.86.64-1.74.89-2.63-.83-.18-1.74-.34-2.69-.49l.92,1.56M49.34.97c4.5,2.57,4.99,9.34,3.06,17.23,7.77,2.3,13.38,6.12,13.38,11.26s-5.6,8.97-13.38,11.26c1.9,7.9,1.41,14.66-3.06,17.23s-10.56-.37-16.44-5.97c-5.88,5.6-11.97,8.54-16.47,5.97-4.5-2.57-4.96-9.18-3.06-17.23-7.77-2.3-13.38-6.12-13.38-11.26s5.6-9,13.38-11.29c-1.9-7.9-1.41-14.66,3.06-17.23s10.59.37,16.47,5.97C38.78,1.31,44.87-1.63,49.34.94m-.89,28.5c1.06,2.25,2,4.56,2.82,6.92,6.43-1.93,10.04-4.68,10.04-6.92s-3.7-4.99-10.04-6.92c-.81,2.36-1.75,4.66-2.82,6.92m-31.1,0c-1.06-2.25-2-4.56-2.82-6.92-6.43,1.93-10.04,4.68-10.04,6.92s3.7,4.99,10.04,6.92c.81-2.36,1.75-4.66,2.82-6.92m27.55,6.92l-.92,1.56c.95,0,1.87-.31,2.69-.49-.25-.89-.54-1.77-.89-2.63l-.89,1.56m-8.94,12.37c4.87,4.59,9.18,6.37,10.99,5.2s2.54-5.57.98-12.24c-2.43.5-4.88.87-7.35,1.1-1.44,2.06-2.98,4.04-4.62,5.94m-15.06-26.2l.92-1.56c-.95,0-1.87.31-2.69.49.25.89.54,1.77.89,2.63l.89-1.56m8.94-12.37c-4.96-4.59-9.18-6.37-11.11-5.2s-2.51,5.57-.95,12.24c2.43-.5,4.88-.87,7.35-1.1,1.47-2.06,3.04-4.04,4.71-5.94Z"/>
  </g>
</svg>