<?xml version="1.0" encoding="UTF-8"?>
<svg id="Camada_2" data-name="Camada 2" xmlns="http://www.w3.org/2000/svg" viewBox="0 0 66 49">
  <defs>
    <style>
      .cls-1 {
        fill: #2a7ae4;
        fill-rule: evenodd;
      }
    </style>
  </defs>
  <g id="Camada_1-2" data-name="Camada 1">
    <path class="cls-1" d="m0,20.43c0,.37.11.61.17.84.4,1.53,1.25,2.84,2.27,4.04,1.44,1.71,3.21,3.08,5.02,4.37,1.57,1.12,3.17,2.22,4.75,3.33.27.19.53.41.82.64-.25.14-.46.26-.68.37-2.08,1.05-4.08,2.22-5.93,3.65-1.11.86-2.19,1.77-2.95,2.96-1.22,1.92-1.65,3.96-.74,6.14.27.64.67,1.19,1.24,1.59.19.13.39.26.61.31.56.13,1.12.22,1.69.32h1.59c1.76-.16,3.37-.76,4.82-1.75,2.27-1.55,3.79-3.64,4.45-6.31.48-1.94.5-3.89-.07-5.82-.05-.18-.12-.36-.19-.53-.07-.17-.15-.34-.24-.56l3.61-2.06.05.05c-.07.21-.14.43-.19.64-.43,1.56-.71,3.14-.61,4.76.11,1.72.59,3.33,1.61,4.77.82,1.16,2.78,1.21,3.65.04.31-.41.61-.85.84-1.31.59-1.21,1.13-2.44,1.7-3.66l.1-.22c-.04.58-.09,1.09-.11,1.59-.03.79.01,1.58.29,2.34.23.65.63,1.13,1.38,1.21.51.06.92-.17,1.29-.47.58-.46,1.06-1.02,1.41-1.67,1-1.82,2.03-3.63,2.93-5.5.98-2.02,1.84-4.1,2.75-6.15l.15-.36c.22.84.36,1.66.64,2.44.32.9.72,1.78,1.15,2.64.2.4.18.67-.1,1.01-1.19,1.42-2.35,2.86-3.52,4.29-.26.32-.52.64-.73.99-.13.22-.22.46-.25.71-.04.23.02.47.15.66.14.19.34.32.57.37.47.1.95.13,1.42.1,1.63-.12,3.11-.69,4.41-1.65,1.69-1.24,2.24-2.94,1.83-4.96-.11-.55-.31-1.08-.5-1.6-.09-.24-.09-.4.06-.63,1.35-1.92,2.51-3.95,3.59-6.04.04-.08.09-.16.16-.25.35,1.8.87,3.54,1.81,5.11-.48.46-.95.87-1.38,1.33-.95,1.01-1.77,2.11-2.19,3.44-.18.58-.33,1.16-.24,1.78.13.96.92,1.58,1.86,1.36,2.03-.47,3.77-1.41,5.05-3.09.86-1.13.94-2.39.58-3.71-.1-.36-.22-.71-.34-1.12.5-.15.99-.34,1.49-.45,2.62-.59,5.21-.49,7.73.45,1.47.55,2.66,1.46,3.37,2.91.86,1.76.39,3.44-1.29,4.55-.16.1-.33.19-.46.32-.04.05-.07.1-.09.16-.02.06-.02.12-.02.19.01.06.18.14.28.14.55,0,1-.29,1.43-.58,1.07-.74,1.86-1.73,2.03-3.04l.03-.1-.04-.85s.01-.1,0-.13c-.23-1.9-1.25-3.38-2.74-4.53-1.72-1.34-3.76-1.89-5.91-1.98-1.75-.07-3.49.19-5.13.78-.47.17-.94.37-1.41.56-.06-.11-.13-.22-.19-.34-.49-.99-1.08-1.94-1.21-3.07-.09-.81-.21-1.61-.01-2.41.19-.77.43-1.52.65-2.28.12-.39.03-.61-.34-.78-.13-.06-.27-.11-.41-.13-.92-.13-1.83-.06-2.72.2-.32.09-.54.27-.61.61-.04.2-.12.39-.18.59-.23.82-.4,1.65-.77,2.42-.94,1.95-2.02,3.82-3.12,5.69-.12.2-.24.4-.4.64-.39-.8-.8-1.52-.92-2.37-.14-.96-.25-1.91-.01-2.86.18-.71.41-1.4.63-2.1.1-.33.05-.51-.25-.68-.15-.09-.33-.17-.5-.19-.94-.14-1.91-.06-2.81.23-.29.09-.44.27-.52.57-.26.86-.48,1.74-.84,2.56-1.46,3.32-2.96,6.62-4.46,9.92-.31.69-.68,1.35-1.03,2.03-.09.17-.22.32-.33.48-.09-.1-.12-.18-.12-.25,0-.42-.05-.86.03-1.27.25-1.24.53-2.48.83-3.7.25-1.02.53-2.02.81-3.03.09-.34.09-.65-.15-.94-.41-.48-1.27-.58-1.78-.21l-.23.13.04-.36c.11-.77.13-1.54-.08-2.3-.27-.95-.95-1.49-1.94-1.46-.46.01-.95.09-1.37.26-1.8.7-3.18,1.94-4.36,3.43-.11.14-.24.25-.4.34-1.52.84-3.05,1.66-4.57,2.49l-1.7.92c-.46-.43-.87-.88-1.34-1.26-1.43-1.16-2.89-2.29-4.33-3.44-1.28-1.02-2.52-2.08-3.47-3.42-.71-1-1.16-2.1-1.2-3.34-.06-1.58.4-3.02,1.21-4.36,1.04-1.72,2.45-3.1,4-4.35,1.64-1.32,3.42-2.44,5.26-3.46,2.58-1.43,5.23-2.7,8.07-3.53,2.91-.86,5.87-1.35,8.92-1.01,1.2.13,2.36.41,3.43.99.82.45,1.49,1.03,1.8,1.94.31.9.3,1.8.09,2.72-.43,1.84-1.45,3.36-2.73,4.72-2.1,2.23-4.66,3.74-7.54,4.74-1.66.58-3.38.94-5.13,1.09-1.43.12-2.84,0-4.2-.5-.9-.33-1.68-.83-2.31-1.56-.11-.13-.26-.27-.47-.15-.21.12-.24.31-.17.51.12.33.22.67.4.96.45.73,1.11,1.26,1.83,1.72,1.39.88,2.94,1.17,4.55,1.24,2.44.1,4.83-.26,7.18-.91,3.36-.93,6.27-2.57,8.61-5.16,1.95-2.16,3.34-4.59,3.64-7.52.15-1.43,0-2.84-.69-4.15-.73-1.42-1.9-2.47-3.29-3.2-2.03-1.06-4.22-1.67-6.48-1.67h-2.27c-2.74,0-5.39.78-7.96,1.71-1.95.7-3.86,1.53-5.71,2.45-4.04,2-7.8,4.42-10.89,7.74-1.54,1.65-2.84,3.48-3.59,5.63-.23.64-.42,1.29-.58,1.95l-.05.94Zm14.68,17.85c-.18,2.33-1.24,4.21-2.97,5.74-.98.86-2.1,1.47-3.4,1.69-.47.08-.96.1-1.42-.1-.65-.28-.8-.85-.81-1.47-.02-.98.33-1.86.8-2.71.62-1.1,1.52-1.93,2.49-2.72,1.52-1.23,3.18-2.27,4.87-3.26l.13-.05c.26.96.39,1.91.31,2.87Zm13.22-10.11c-.12.74-.28,1.49-.5,2.21-.76,2.49-1.73,4.91-2.78,7.29-.19.44-.48.84-.72,1.26-.04.06-.09.12-.15.17-.3.3-.59.28-.75-.11-.18-.45-.29-.94-.38-1.42-.06-.32-.05-.66-.07-.99.02-2.34.74-4.48,1.96-6.46.5-.82,1.05-1.6,1.89-2.12.26-.16.54-.28.84-.37.45-.12.72.08.65.53Zm9.02,11.41l3.24-3.76c.14,1.4-2.26,4.18-3.24,3.76Zm10.36-2.53c-.23.13-.48.22-.71.34-.22.11-.29,0-.29-.18,0-.13.01-.25.05-.38.44-1.53,1.24-2.84,2.44-3.91l.08-.04c.57,1.58-.09,3.32-1.57,4.17Z"/>
  </g>
</svg>