<?xml version="1.0" encoding="UTF-8"?>
<svg id="Camada_2" data-name="Camada 2" xmlns="http://www.w3.org/2000/svg" viewBox="0 0 65 39">
  <defs>
    <style>
      .cls-1 {
        fill: #2a7ae4;
      }
    </style>
  </defs>
  <g id="Camada_1-2" data-name="Camada 1">
    <path class="cls-1" d="m32.5,0c-8.67,0-14.08,4.33-16.25,13,3.25-4.33,7.04-5.96,11.37-4.87,2.47.62,4.24,2.41,6.2,4.4,3.19,3.23,6.87,6.98,14.93,6.98,8.67,0,14.08-4.33,16.25-13-3.25,4.33-7.04,5.96-11.37,4.88-2.47-.62-4.24-2.41-6.2-4.4-3.18-3.23-6.87-6.98-14.93-6.98h0Zm-16.25,19.5c-8.67,0-14.08,4.33-16.25,13,3.25-4.33,7.04-5.96,11.37-4.88,2.47.62,4.24,2.41,6.2,4.4,3.19,3.23,6.87,6.98,14.93,6.98,8.67,0,14.08-4.33,16.25-13-3.25,4.33-7.04,5.96-11.37,4.87-2.47-.62-4.24-2.41-6.2-4.4-3.18-3.23-6.87-6.98-14.93-6.98Z"/>
  </g>
</svg>