<?xml version="1.0" standalone="no"?>
<!DOCTYPE svg PUBLIC "-//W3C//DTD SVG 20010904//EN"
 "http://www.w3.org/TR/2001/REC-SVG-20010904/DTD/svg10.dtd">
<svg version="1.0" xmlns="http://www.w3.org/2000/svg"
 width="1713.000000pt" height="2306.000000pt" viewBox="0 0 1713.000000 2306.000000"
 preserveAspectRatio="xMidYMid meet">

<g transform="translate(0.000000,2306.000000) scale(0.100000,-0.100000)"
fill="#fff" stroke="none">
<path d="M8478 19187 c-31 -14 -71 -36 -87 -50 -17 -14 -1762 -1747 -3878
-3851 -3510 -3489 -3851 -3831 -3883 -3892 l-35 -67 0 -2946 0 -2946 22 -47
c30 -66 96 -133 162 -165 49 -24 68 -28 146 -28 73 0 99 4 140 23 42 20 680
654 3792 3770 l3743 3747 3727 -3727 c2051 -2050 3742 -3739 3759 -3752 86
-70 231 -78 344 -21 57 29 125 101 153 163 l22 47 0 2945 0 2945 -28 57 c-24
49 -526 551 -3904 3907 -3314 3293 -3884 3855 -3932 3879 -79 38 -183 42 -263
9z"/>
</g>
</svg>
