<?xml version="1.0" encoding="utf-8"?>
<!-- Generator: Adobe Illustrator 27.3.1, SVG Export Plug-In . SVG Version: 6.00 Build 0)  -->
<svg version="1.1" id="Camada_1" xmlns="http://www.w3.org/2000/svg" xmlns:xlink="http://www.w3.org/1999/xlink" x="0px" y="0px"
	 viewBox="0 0 800 800" style="enable-background:new 0 0 800 800;" xml:space="preserve">
<style type="text/css">
	.st0{fill:#2A7AE4;}
</style>
<path class="st0" d="M717.9,271.7c-0.1-1-0.2-2-0.3-2.9c-6.1-87.2-78.5-154.8-165.9-155.1H218.3c-88.8-0.4-162.1,69.2-166.2,157.9
	c-0.3,2.6-0.4,5.4-0.4,8.4v217c0,30.8,12.4,60.9,34.1,82.5c22,21.8,51.6,34.1,82.6,34.1c60,0,83.5-33.3,116.7-100
	c4.9-9.7,33.1-66.7,100-66.7c66.5,0,95.1,56.9,100,66.7c33.5,66.7,56.7,100,116.7,100c30.8,0,60.9-12.4,82.5-34.1
	c21.8-22,34.1-51.6,34.1-82.6V280.3C718.3,277.2,718.2,274.3,717.9,271.7z M218.3,348c-36.8,0.8-67.3-28.3-68.2-65.1
	c-0.8-36.8,28.3-67.3,65.1-68.2c1,0,2,0,3,0c36.8,0.8,66,31.3,65.2,68.1C282.7,318.5,254,347.2,218.3,348z M551.7,181.4
	c18.4,0,33.3,14.9,33.3,33.3S570.1,248,551.7,248s-33.3-14.9-33.3-33.3S533.3,181.4,551.7,181.4z M485,314.7
	c-18.4,0-33.3-14.9-33.3-33.3c0-18.4,14.9-33.3,33.3-33.3c18.4,0,33.3,14.9,33.3,33.3C518.3,299.8,503.4,314.7,485,314.7z
	 M551.7,381.4c-18.4,0-33.3-14.9-33.3-33.3s14.9-33.3,33.3-33.3S585,329.6,585,348S570.1,381.4,551.7,381.4z M618.3,314.7
	c-18.4,0-33.3-14.9-33.3-33.3c0-18.4,14.9-33.3,33.3-33.3s33.3,14.9,33.3,33.3C651.7,299.8,636.7,314.7,618.3,314.7z"/>
</svg>
