<?xml version="1.0" encoding="utf-8"?>
<!-- Generator: Adobe Illustrator 27.3.1, SVG Export Plug-In . SVG Version: 6.00 Build 0)  -->
<svg version="1.1" id="Camada_1" xmlns="http://www.w3.org/2000/svg" xmlns:xlink="http://www.w3.org/1999/xlink" x="0px" y="0px"
	 viewBox="0 0 800 800" style="enable-background:new 0 0 800 800;" xml:space="preserve">
<style type="text/css">
	.st0{fill:#2A7AE4;}
</style>
<g id="guitar">
	<path class="st0" d="M773,115.1l18-18c11.9-11.9,11.9-31.3,0-43.3L746.2,9c-5.7-5.7-13.5-9-21.6-9c-8.1,0-15.9,3.2-21.6,9l-18,18
		L667.3,9.4c-7.3-7.3-19.1-7.3-26.4,0c-7.3,7.3-7.3,19.1,0,26.4l17.6,17.6l-8.8,8.8l-17.6-17.6c-7.3-7.3-19.1-7.3-26.4,0
		c-7.3,7.3-7.3,19.1,0,26.4l17.6,17.6l-8.8,8.8l-17.6-17.6c-7.3-7.3-19.1-7.3-26.4,0c-7.3,7.3-7.3,19.1,0,26.4l17.6,17.6l-133,133
		c-63.8-33.9-137.6-29.8-183.4,16.1c-8.5,8.5-15.5,18-21.2,28.2c-12.3,22.3-35.7,36.4-61.2,36.8c-50.6,0.9-98.4,18.9-134.3,54.8
		c-82.6,82.6-70.7,228.4,26.6,325.7S324.7,827.7,407.3,745c35.9-35.9,53.9-83.7,54.8-134.3c0.5-25.5,14.6-48.9,36.8-61.2
		c10.2-5.7,19.7-12.7,28.2-21.2c45.8-45.8,49.9-119.7,16-183.4l133-133l17.6,17.6c3.7,3.6,8.4,5.5,13.2,5.5c4.8,0,9.5-1.8,13.2-5.5
		c7.3-7.3,7.3-19.1,0-26.4l-17.6-17.6l8.8-8.8l17.6,17.6c3.7,3.6,8.5,5.5,13.2,5.5c4.8,0,9.5-1.8,13.2-5.5c7.3-7.3,7.3-19.1,0-26.4
		l-17.6-17.6l8.8-8.8l17.6,17.6c3.6,3.6,8.4,5.5,13.2,5.5s9.5-1.8,13.2-5.5c7.3-7.3,7.3-19.1,0-26.4L773,115.1z M425.1,498.2
		c-34.1,34.1-89.3,34.1-123.3,0s-34.1-89.3,0-123.3s89.3-34.1,123.3,0C459.1,409,459.2,464.2,425.1,498.2z"/>
</g>
<g id="Layer_1">
</g>
</svg>
