<?xml version="1.0" encoding="UTF-8"?>
<svg id="Camada_2" data-name="Camada 2" xmlns="http://www.w3.org/2000/svg" viewBox="0 0 733.33 700">
  <defs>
    <style>
      .cls-1 {
        fill-rule: evenodd;
      }
    </style>
  </defs>
  <g id="Camada_1-2" data-name="Camada 1">
    <path class="cls-1" d="m0,100C0,44.77,44.77,0,100,0h533.33c55.23,0,100,44.77,100,100v366.67c0,55.23-44.77,100-100,100h-100v66.67h33.33c18.41,0,33.33,14.92,33.33,33.33s-14.92,33.33-33.33,33.33H166.67c-18.41,0-33.33-14.92-33.33-33.33s14.92-33.33,33.33-33.33h33.33v-66.67h-100c-55.23,0-100-44.77-100-100V100Zm466.67,533.33v-66.67h-200v66.67h200Zm166.67-133.33H100c-18.41,0-33.33-14.92-33.33-33.33V100c0-18.41,14.92-33.33,33.33-33.33h533.33c18.41,0,33.33,14.92,33.33,33.33v366.67c0,18.41-14.92,33.33-33.33,33.33ZM116.67,100c-9.2,0-16.67,7.46-16.67,16.67v300c0,9.2,7.46,16.67,16.67,16.67h500c9.2,0,16.67-7.46,16.67-16.67V116.67c0-9.2-7.46-16.67-16.67-16.67H116.67Z" fill="#2A7AE4"/>
  </g>
</svg>