<?xml version="1.0" encoding="UTF-8"?>
<svg id="Camada_2" data-name="Camada 2" xmlns="http://www.w3.org/2000/svg" viewBox="0 0 511.96 447">
  <g id="Camada_1-2" data-name="Camada 1">
    <path d="m128.05,1.7C126.35,3.1,6.45,208.7,1.05,219.3c-.8,1.6-1.2,3.8-1,5.1.3,1.2,29.2,51.8,64.4,112.4l63.9,110.2h127c103.7-.1,127.4-.3,129.4-1.4,2.8-1.5,127.1-218.8,127.1-222.1,0-2.6,5.7,7.6-63.9-114.5C414.85,51,386.85,2.7,385.75,1.7c-2-1.6-9.6-1.7-128.9-1.7s-126.9.1-128.8,1.7Zm235.2,20.5c-1,3.3-35.3,87-35.8,87.5S177.25,23.5,174.85,21.3c-1.2-1.1,14.2-1.3,93.9-1.3h95.2l-.7,2.2Zm-134.9,54.4c45.9,26.8,83.4,48.9,83.1,49.2-1,1-182,110.1-182.3,109.8-.6-.5,14.2-207.6,14.8-207.6.4,0,38.4,21.9,84.4,48.6Zm199.9,39.7c24.1,42.3,43.6,77,43.4,77.2-.4.4-123.6-70.9-125.1-72.4-.5-.5,17.7-46.8,34-85.9.7-1.6-3.9-9.5,47.7,81.1Zm-313.9,31.7c-3.6,50.9-6.5,92.6-6.5,92.7,0,.8-5.9-.8-41.6-11.4-21.7-6.5-39.4-12.2-39.4-12.6,0-1.2,93.2-161.9,93.6-161.4.2.1-2.6,41.9-6.1,92.7Zm207,104.2c-.3,59.6-.8,109.3-1.1,110.5-.4,2-8.9-2.9-91.4-52.4-50.8-30.5-90.7-55-90.2-55.5.9-.9,182.4-110.7,183-110.8.2,0,.1,48.7-.3,108.2Zm92.7-67.6c57,33.2,69.7,40.9,68.6,42-18.4,17.6-140.5,131.4-141.1,131.4-.4,0-.5-21.7-.2-48.2.3-26.6.8-74.7,1.1-107.1.4-32.3.9-58.7,1.2-58.7s32,18.3,70.4,40.6ZM72.15,252.6c34.9,10.5,35.7,10.8,35.8,13.3,0,1.4,2.6,29.7,5.7,62.9,3.2,33.1,5.5,60.2,5.2,60.2-.3-.1-18.5-31.2-40.5-69.2s-41.3-71.3-42.9-74c-2.5-4.4-2.7-5-1-4.5,1,.3,18,5.4,37.7,11.3Zm148.5,76.9c60.9,36.6,82.7,50.2,81.4,50.7-2.3,1-156.5,42.8-157.8,42.8-.8,0-14.6-139.4-14.4-146.3,0-1.7.3-1.6,3.9.5,2.1,1.3,41.2,24.8,86.9,52.3Zm234.5-46.3c-1.1,1.8-18.9,33.2-39.7,69.6-31.3,54.9-38.1,66.2-39.1,65-7.6-7.9-30.5-33.3-30.5-33.9,0-.8,109.7-103.9,110.6-103.9.3,0-.3,1.5-1.3,3.2Zm-113.7,127.3l13.9,15-35.3.3c-19.3.1-51,.1-70.3,0l-35-.3,55.3-15.1c30.4-8.4,55.8-15.1,56.5-15,.6,0,7.3,6.8,14.9,15.1Z" fill="#2A7AE4"/>
  </g>
</svg>