<?xml version="1.0" encoding="UTF-8"?>
<svg id="Camada_2" data-name="Camada 2" xmlns="http://www.w3.org/2000/svg" viewBox="0 0 762.67 763.67">
  <defs>
    <style>
      .cls-1 {
        fill: none;
        stroke: #2A7AE4;
        stroke-miterlimit: 333.33;
        stroke-width: 63.67px;
      }
    </style>
  </defs>
  <g id="Layer_1" data-name="Layer 1">
    <path class="cls-1" d="m127.17,668.17H31.83v-318c-.18-34.98,28.02-63.48,63-63.67.22,0,.45,0,.67,0h526.67c27.08.28,51.02,17.67,59.67,43.33l49,147.33v191h-94.33"/>
    <line class="cls-1" x1="509.17" y1="668.17" x2="254.5" y2="668.17"/>
    <circle class="cls-1" cx="190.83" cy="668.17" r="63.67"/>
    <circle class="cls-1" cx="572.83" cy="668.17" r="63.67"/>
    <line class="cls-1" x1="731.83" y1="477.17" x2="127.17" y2="477.17"/>
    <line class="cls-1" x1="381.83" y1="381.83" x2="381.83" y2="477.17"/>
    <line class="cls-1" x1="540.83" y1="381.83" x2="540.83" y2="477.17"/>
    <line class="cls-1" x1="222.83" y1="381.83" x2="222.83" y2="477.17"/>
    <path class="cls-1" d="m185.5,31.83h329.67c49.71,0,90,40.29,90,90h0s0,37.33,0,37.33H95.5v-37.33c0-49.71,40.29-90,90-90Z"/>
    <line class="cls-1" x1="222.83" y1="31.83" x2="222.83" y2="159.17"/>
    <line class="cls-1" x1="350.17" y1="31.83" x2="350.17" y2="159.17"/>
    <line class="cls-1" x1="477.17" y1="31.83" x2="477.17" y2="159.17"/>
    <line class="cls-1" x1="31.83" y1="159.17" x2="668.17" y2="159.17"/>
    <line class="cls-1" x1="127.17" y1="286.5" x2="127.17" y2="159.17"/>
    <line class="cls-1" x1="572.83" y1="286.5" x2="572.83" y2="159.17"/>
  </g>
</svg>